<svg width="804" height="698" viewBox="0 0 804 698" fill="none" xmlns="http://www.w3.org/2000/svg">
<g clip-path="url(#clip0)">
<path d="M669.817 165.283H665.996V60.5937C665.996 44.5233 659.612 29.111 648.248 17.7475C636.885 6.38397 621.472 1.06087e-05 605.402 0H383.596C375.639 0 367.76 1.5673 360.408 4.61242C353.056 7.65754 346.377 12.1208 340.75 17.7475C335.123 23.3741 330.66 30.0539 327.615 37.4055C324.57 44.7571 323.002 52.6364 323.002 60.5937V634.937C323.002 651.008 329.386 666.42 340.75 677.783C352.113 689.147 367.526 695.531 383.596 695.531H605.402C621.472 695.531 636.884 689.147 648.248 677.783C659.611 666.42 665.995 651.007 665.995 634.937V239.803H669.816L669.817 165.283Z" fill="#121111"/>
<path d="M607.847 15.7585H578.896C580.228 19.023 580.736 22.5649 580.376 26.0721C580.016 29.5793 578.799 32.9441 576.833 35.8702C574.866 38.7963 572.21 41.1938 569.098 42.8515C565.987 44.5091 562.515 45.3761 558.989 45.3759H431.919C428.394 45.3758 424.923 44.5086 421.811 42.8508C418.7 41.193 416.044 38.7955 414.078 35.8695C412.111 32.9434 410.894 29.5787 410.534 26.0716C410.175 22.5646 410.683 19.0228 412.014 15.7585H384.973C372.971 15.7585 361.462 20.526 352.976 29.0121C344.489 37.4983 339.722 49.008 339.722 61.0093V634.519C339.722 646.52 344.489 658.03 352.976 666.516C361.462 675.002 372.971 679.769 384.973 679.769H607.847C619.848 679.769 631.358 675.002 639.844 666.516C648.33 658.03 653.098 646.52 653.098 634.519V634.519V61.0083C653.097 49.0072 648.33 37.4978 639.844 29.0118C631.358 20.5258 619.848 15.7585 607.847 15.7585V15.7585Z" fill="white"/>
<path d="M428.994 149.53C427.786 149.541 426.59 149.298 425.483 148.815C424.375 148.333 423.382 147.624 422.567 146.732C421.6 145.613 420.874 144.307 420.437 142.894C419.999 141.481 419.858 139.994 420.023 138.524C420.254 135.725 421.427 133.087 423.351 131.041C424.275 130.042 425.394 129.242 426.638 128.691C427.882 128.139 429.226 127.848 430.587 127.835C431.853 127.829 433.105 128.09 434.263 128.6C435.421 129.111 436.459 129.859 437.308 130.797C438.272 131.886 439 133.163 439.446 134.548C439.891 135.933 440.045 137.394 439.897 138.841V138.841C439.717 141.811 438.436 144.607 436.305 146.682C434.32 148.529 431.705 149.548 428.994 149.53V149.53ZM430.587 131.451C427.048 131.451 423.99 134.697 423.625 138.841C423.505 139.811 423.585 140.796 423.862 141.733C424.139 142.671 424.606 143.541 425.233 144.29C425.709 144.813 426.29 145.228 426.938 145.508C427.587 145.788 428.288 145.927 428.994 145.914C432.304 145.914 435.845 143.629 436.295 138.524C436.399 137.576 436.306 136.618 436.021 135.708C435.737 134.799 435.267 133.958 434.642 133.239C434.129 132.673 433.503 132.221 432.805 131.913C432.106 131.605 431.351 131.448 430.587 131.451Z" fill="#3F3D56"/>
<path d="M429.112 160.378C426.315 160.424 423.54 159.874 420.972 158.765C418.403 157.657 416.1 156.015 414.215 153.948C412.329 151.881 410.905 149.437 410.036 146.778C409.167 144.119 408.874 141.306 409.175 138.525C409.768 132.687 412.482 127.27 416.802 123.3C421.123 119.331 426.75 117.084 432.617 116.987C439.126 116.987 444.482 119.078 448.105 123.035C451.541 126.787 453.15 132.068 452.635 137.907C452.148 143.437 449.802 146.318 447.919 147.761C447.088 148.438 446.128 148.94 445.096 149.236C444.065 149.531 442.985 149.614 441.921 149.48C438.945 148.952 435.653 146.249 436.171 140.366L437.129 129.49C437.173 129.014 437.404 128.575 437.771 128.269C438.138 127.963 438.612 127.814 439.088 127.856C439.564 127.898 440.004 128.127 440.312 128.493C440.62 128.858 440.771 129.331 440.731 129.807L439.773 140.683C439.515 143.608 440.554 145.565 442.552 145.92C443.703 146.009 444.842 145.639 445.72 144.89C447.026 143.889 448.662 141.81 449.033 137.59C449.464 132.704 448.221 128.515 445.439 125.477C442.518 122.288 438.085 120.603 432.617 120.603C427.654 120.697 422.896 122.603 419.242 125.963C415.587 129.322 413.288 133.903 412.778 138.84C412.52 141.122 412.753 143.432 413.46 145.616C414.168 147.8 415.334 149.808 416.881 151.505C418.427 153.202 420.319 154.549 422.428 155.456C424.537 156.362 426.816 156.808 429.112 156.762C431.944 156.915 434.772 156.403 437.37 155.265C437.811 155.081 438.308 155.081 438.75 155.262C439.192 155.444 439.545 155.793 439.73 156.234C439.915 156.675 439.918 157.172 439.738 157.615C439.559 158.058 439.211 158.412 438.77 158.599C435.729 159.922 432.425 160.531 429.112 160.378Z" fill="#3F3D56"/>
<path d="M410.022 418.805C409.665 418.805 409.315 418.699 409.018 418.501C408.721 418.302 408.489 418.02 408.352 417.689C408.215 417.359 408.179 416.995 408.249 416.645C408.319 416.294 408.491 415.972 408.744 415.719L420.496 403.967C420.836 403.632 421.294 403.445 421.771 403.447C422.249 403.449 422.706 403.639 423.043 403.976C423.381 404.314 423.571 404.771 423.573 405.248C423.574 405.725 423.387 406.184 423.052 406.524L411.301 418.276C411.133 418.444 410.934 418.577 410.714 418.668C410.495 418.759 410.26 418.806 410.022 418.805ZM439.854 414.285C439.496 414.285 439.147 414.179 438.849 413.981C438.552 413.782 438.32 413.5 438.184 413.169C438.047 412.839 438.011 412.475 438.081 412.125C438.15 411.774 438.323 411.452 438.575 411.199L448.519 401.255C448.859 400.92 449.318 400.733 449.795 400.735C450.272 400.737 450.729 400.927 451.067 401.264C451.404 401.602 451.595 402.059 451.596 402.536C451.598 403.013 451.411 403.472 451.076 403.812L441.132 413.756C440.965 413.924 440.765 414.057 440.546 414.148C440.326 414.239 440.091 414.286 439.854 414.285V414.285ZM434.43 414.285C434.192 414.286 433.957 414.239 433.738 414.148C433.518 414.057 433.319 413.924 433.151 413.756L425.92 406.524C425.75 406.356 425.615 406.157 425.522 405.937C425.43 405.717 425.382 405.481 425.381 405.243C425.38 405.004 425.427 404.768 425.517 404.548C425.608 404.327 425.742 404.127 425.911 403.958C426.079 403.789 426.28 403.656 426.5 403.565C426.721 403.474 426.957 403.428 427.195 403.429C427.434 403.429 427.67 403.477 427.89 403.57C428.11 403.662 428.309 403.797 428.476 403.967L435.708 411.199C435.961 411.452 436.133 411.774 436.203 412.125C436.273 412.475 436.237 412.839 436.1 413.169C435.963 413.5 435.732 413.782 435.434 413.981C435.137 414.179 434.787 414.285 434.43 414.285V414.285Z" fill="#3F3D56"/>
<path d="M452.51 404.342C451.616 404.342 450.742 404.076 449.998 403.58C449.255 403.083 448.676 402.377 448.334 401.551C447.992 400.725 447.902 399.817 448.076 398.94C448.251 398.063 448.681 397.258 449.313 396.626C449.946 395.993 450.751 395.563 451.628 395.388C452.505 395.214 453.413 395.304 454.239 395.646C455.065 395.988 455.771 396.567 456.268 397.31C456.764 398.054 457.029 398.928 457.029 399.822C457.028 401.02 456.551 402.169 455.704 403.016C454.857 403.864 453.708 404.34 452.51 404.342V404.342ZM452.51 398.918C452.331 398.918 452.156 398.971 452.007 399.07C451.859 399.169 451.743 399.31 451.674 399.476C451.606 399.641 451.588 399.823 451.623 399.998C451.658 400.173 451.744 400.334 451.87 400.461C451.997 400.587 452.158 400.673 452.333 400.708C452.509 400.743 452.69 400.725 452.855 400.657C453.021 400.588 453.162 400.472 453.261 400.324C453.361 400.175 453.414 400 453.414 399.822C453.413 399.582 453.318 399.352 453.148 399.183C452.979 399.013 452.749 398.918 452.51 398.918V398.918Z" fill="#3F3D56"/>
<path d="M437.142 419.709C436.248 419.709 435.374 419.444 434.631 418.948C433.887 418.451 433.308 417.745 432.966 416.919C432.624 416.093 432.534 415.184 432.709 414.308C432.883 413.431 433.314 412.625 433.946 411.993C434.578 411.361 435.383 410.931 436.26 410.756C437.137 410.582 438.046 410.671 438.871 411.013C439.697 411.356 440.403 411.935 440.9 412.678C441.397 413.421 441.662 414.295 441.662 415.189C441.66 416.388 441.184 417.537 440.336 418.384C439.489 419.231 438.34 419.708 437.142 419.709ZM437.142 414.285C436.963 414.285 436.788 414.338 436.64 414.438C436.491 414.537 436.375 414.678 436.307 414.843C436.238 415.009 436.22 415.19 436.255 415.366C436.29 415.541 436.376 415.702 436.503 415.829C436.629 415.955 436.79 416.041 436.965 416.076C437.141 416.111 437.323 416.093 437.488 416.025C437.653 415.956 437.794 415.84 437.893 415.692C437.993 415.543 438.046 415.368 438.046 415.189C438.046 414.95 437.95 414.72 437.781 414.55C437.611 414.381 437.381 414.286 437.142 414.285V414.285Z" fill="#3F3D56"/>
<path d="M424.486 407.053C423.592 407.053 422.718 406.788 421.975 406.292C421.232 405.795 420.652 405.089 420.31 404.263C419.968 403.437 419.879 402.529 420.053 401.652C420.227 400.775 420.658 399.97 421.29 399.337C421.922 398.705 422.727 398.275 423.604 398.1C424.481 397.926 425.39 398.016 426.216 398.358C427.042 398.7 427.748 399.279 428.244 400.022C428.741 400.766 429.006 401.64 429.006 402.534C429.005 403.732 428.528 404.881 427.681 405.728C426.833 406.575 425.684 407.052 424.486 407.053V407.053ZM424.486 401.63C424.307 401.63 424.132 401.683 423.984 401.782C423.835 401.881 423.719 402.022 423.651 402.188C423.582 402.353 423.564 402.535 423.599 402.71C423.634 402.885 423.72 403.046 423.847 403.173C423.973 403.299 424.134 403.385 424.31 403.42C424.485 403.455 424.667 403.437 424.832 403.369C424.997 403.3 425.138 403.184 425.238 403.036C425.337 402.887 425.39 402.712 425.39 402.534C425.39 402.294 425.294 402.064 425.125 401.895C424.955 401.725 424.726 401.63 424.486 401.63V401.63Z" fill="#3F3D56"/>
<path d="M407.31 424.229C406.416 424.229 405.542 423.964 404.799 423.467C404.056 422.971 403.476 422.265 403.134 421.439C402.792 420.613 402.703 419.704 402.877 418.827C403.052 417.951 403.482 417.145 404.114 416.513C404.746 415.881 405.552 415.451 406.428 415.276C407.305 415.102 408.214 415.191 409.04 415.533C409.866 415.876 410.572 416.455 411.068 417.198C411.565 417.941 411.83 418.815 411.83 419.709C411.829 420.908 411.352 422.056 410.505 422.904C409.657 423.751 408.509 424.228 407.31 424.229V424.229ZM407.31 418.805C407.131 418.805 406.957 418.858 406.808 418.958C406.659 419.057 406.543 419.198 406.475 419.363C406.407 419.528 406.389 419.71 406.424 419.886C406.458 420.061 406.545 420.222 406.671 420.349C406.797 420.475 406.958 420.561 407.134 420.596C407.309 420.631 407.491 420.613 407.656 420.544C407.821 420.476 407.963 420.36 408.062 420.212C408.161 420.063 408.214 419.888 408.214 419.709C408.214 419.47 408.119 419.24 407.949 419.07C407.78 418.901 407.55 418.806 407.31 418.805V418.805Z" fill="#3F3D56"/>
<path d="M578.894 563.653H540.926C539.248 563.651 537.64 562.984 536.454 561.798C535.267 560.611 534.6 559.003 534.598 557.325V530.206C534.6 528.528 535.267 526.92 536.454 525.733C537.64 524.547 539.248 523.88 540.926 523.878H578.894C580.571 523.88 582.18 524.547 583.366 525.733C584.552 526.92 585.22 528.528 585.221 530.206V557.325C585.22 559.003 584.552 560.611 583.366 561.798C582.18 562.984 580.571 563.651 578.894 563.653V563.653ZM540.926 527.494C540.207 527.494 539.518 527.78 539.009 528.289C538.501 528.797 538.215 529.487 538.214 530.206V557.325C538.215 558.044 538.501 558.734 539.009 559.242C539.518 559.75 540.207 560.036 540.926 560.037H578.894C579.613 560.036 580.302 559.75 580.81 559.242C581.319 558.734 581.605 558.044 581.606 557.325V530.206C581.605 529.487 581.319 528.797 580.81 528.289C580.302 527.78 579.613 527.494 578.894 527.494L540.926 527.494Z" fill="#3F3D56"/>
<path d="M559.91 547.381C559.508 547.382 559.117 547.248 558.8 547L542.528 534.345C542.341 534.199 542.184 534.018 542.066 533.811C541.949 533.605 541.873 533.377 541.844 533.142C541.815 532.906 541.832 532.667 541.895 532.438C541.958 532.209 542.065 531.995 542.211 531.808C542.357 531.62 542.538 531.463 542.744 531.346C542.951 531.229 543.178 531.153 543.414 531.124C543.649 531.094 543.888 531.111 544.117 531.174C544.346 531.237 544.561 531.345 544.748 531.49L559.91 543.283L575.072 531.49C575.259 531.345 575.473 531.237 575.702 531.174C575.931 531.111 576.17 531.094 576.406 531.124C576.641 531.153 576.869 531.229 577.075 531.346C577.282 531.463 577.463 531.62 577.609 531.808C577.754 531.995 577.862 532.209 577.925 532.438C577.988 532.667 578.005 532.906 577.976 533.142C577.946 533.377 577.871 533.605 577.753 533.811C577.636 534.018 577.479 534.199 577.292 534.345L561.02 547C560.703 547.248 560.312 547.382 559.91 547.381V547.381Z" fill="#3F3D56"/>
<path d="M763.835 588.682L554.693 588.765C554.428 588.765 554.174 588.66 553.986 588.473C553.799 588.285 553.693 588.031 553.693 587.765C553.693 587.5 553.799 587.246 553.986 587.058C554.174 586.871 554.428 586.765 554.693 586.765L763.835 586.682C764.1 586.682 764.354 586.788 764.542 586.975C764.729 587.163 764.835 587.417 764.835 587.682C764.835 587.948 764.729 588.202 764.542 588.39C764.354 588.577 764.1 588.682 763.835 588.682Z" fill="#CCCCCC"/>
<path d="M761.051 601.683C768.783 601.683 775.051 595.415 775.051 587.683C775.051 579.951 768.783 573.683 761.051 573.683C753.319 573.683 747.051 579.951 747.051 587.683C747.051 595.415 753.319 601.683 761.051 601.683Z" fill="#9E63FF"/>
<path d="M758.835 320.683L547.693 320.765C547.428 320.765 547.174 320.66 546.986 320.473C546.799 320.285 546.693 320.031 546.693 319.765C546.693 319.5 546.799 319.246 546.986 319.058C547.174 318.871 547.428 318.765 547.693 318.765L758.835 318.683C759.1 318.683 759.354 318.788 759.542 318.975C759.729 319.163 759.835 319.417 759.835 319.683C759.835 319.948 759.729 320.202 759.542 320.39C759.354 320.577 759.1 320.683 758.835 320.683Z" fill="#CCCCCC"/>
<path d="M761.051 334.683C768.783 334.683 775.051 328.415 775.051 320.683C775.051 312.951 768.783 306.683 761.051 306.683C753.319 306.683 747.051 312.951 747.051 320.683C747.051 328.415 753.319 334.683 761.051 334.683Z" fill="#9E63FF"/>
<path d="M218.268 183.683L429.409 183.765C429.674 183.765 429.929 183.66 430.116 183.473C430.304 183.285 430.409 183.031 430.409 182.765C430.409 182.5 430.304 182.246 430.116 182.058C429.929 181.871 429.674 181.765 429.409 181.765L218.268 181.683C218.002 181.683 217.748 181.788 217.561 181.975C217.373 182.163 217.268 182.417 217.268 182.683C217.268 182.948 217.373 183.202 217.561 183.39C217.748 183.577 218.002 183.683 218.268 183.683V183.683Z" fill="#CCCCCC"/>
<path d="M216.051 197.683C223.783 197.683 230.051 191.415 230.051 183.683C230.051 175.951 223.783 169.683 216.051 169.683C208.319 169.683 202.051 175.951 202.051 183.683C202.051 191.415 208.319 197.683 216.051 197.683Z" fill="#9E63FF"/>
<path d="M218.268 454.683L429.409 454.765C429.674 454.765 429.929 454.66 430.116 454.473C430.304 454.285 430.409 454.031 430.409 453.765C430.409 453.5 430.304 453.246 430.116 453.058C429.929 452.871 429.674 452.765 429.409 452.765L218.268 452.683C218.002 452.683 217.748 452.788 217.561 452.975C217.373 453.163 217.268 453.417 217.268 453.683C217.268 453.948 217.373 454.202 217.561 454.39C217.748 454.577 218.002 454.683 218.268 454.683V454.683Z" fill="#CCCCCC"/>
<path d="M216.051 468.683C223.783 468.683 230.051 462.415 230.051 454.683C230.051 446.951 223.783 440.683 216.051 440.683C208.319 440.683 202.051 446.951 202.051 454.683C202.051 462.415 208.319 468.683 216.051 468.683Z" fill="#9E63FF"/>
<path d="M559.91 588.765C551.01 588.765 542.309 586.126 534.909 581.182C527.509 576.237 521.741 569.209 518.335 560.986C514.929 552.764 514.038 543.716 515.775 534.986C517.511 526.257 521.797 518.239 528.09 511.946C534.384 505.652 542.402 501.366 551.131 499.63C559.86 497.894 568.908 498.785 577.131 502.191C585.353 505.597 592.381 511.365 597.326 518.765C602.271 526.165 604.91 534.865 604.91 543.765C604.896 555.696 600.151 567.134 591.715 575.57C583.279 584.006 571.841 588.752 559.91 588.765V588.765ZM559.91 500.765C551.405 500.765 543.092 503.287 536.02 508.012C528.949 512.737 523.438 519.453 520.183 527.31C516.929 535.167 516.077 543.813 517.736 552.154C519.395 560.496 523.491 568.157 529.504 574.171C535.518 580.185 543.18 584.28 551.521 585.939C559.862 587.598 568.508 586.747 576.365 583.492C584.223 580.238 590.938 574.726 595.663 567.655C600.388 560.584 602.91 552.27 602.91 543.765C602.897 532.365 598.363 521.435 590.301 513.374C582.24 505.313 571.31 500.778 559.91 500.765V500.765Z" fill="#CCCCCC"/>
<path d="M429.91 454.765C421.01 454.765 412.309 452.126 404.909 447.182C397.509 442.237 391.741 435.209 388.335 426.986C384.929 418.763 384.038 409.715 385.775 400.986C387.511 392.257 391.797 384.239 398.09 377.946C404.384 371.652 412.402 367.366 421.131 365.63C429.86 363.894 438.908 364.785 447.131 368.191C455.353 371.597 462.381 377.365 467.326 384.765C472.271 392.165 474.91 400.865 474.91 409.765C474.896 421.696 470.151 433.134 461.715 441.57C453.279 450.006 441.841 454.752 429.91 454.765ZM429.91 366.765C421.405 366.765 413.092 369.287 406.02 374.012C398.949 378.737 393.438 385.453 390.183 393.31C386.929 401.167 386.077 409.813 387.736 418.154C389.395 426.496 393.491 434.157 399.504 440.171C405.518 446.185 413.18 450.28 421.521 451.939C429.862 453.598 438.508 452.747 446.365 449.492C454.223 446.238 460.938 440.726 465.663 433.655C470.388 426.584 472.91 418.27 472.91 409.765C472.897 398.365 468.363 387.435 460.301 379.374C452.24 371.313 441.31 366.778 429.91 366.765V366.765Z" fill="#CCCCCC"/>
<path d="M550.91 320.765C542.01 320.765 533.309 318.126 525.909 313.182C518.509 308.237 512.741 301.209 509.335 292.986C505.929 284.763 505.038 275.715 506.775 266.986C508.511 258.257 512.797 250.239 519.09 243.946C525.384 237.652 533.402 233.366 542.131 231.63C550.86 229.894 559.908 230.785 568.131 234.191C576.353 237.597 583.381 243.365 588.326 250.765C593.271 258.165 595.91 266.865 595.91 275.765C595.896 287.696 591.151 299.134 582.715 307.57C574.279 316.007 562.841 320.752 550.91 320.765V320.765ZM550.91 232.765C542.405 232.765 534.092 235.287 527.02 240.012C519.949 244.737 514.438 251.453 511.183 259.31C507.929 267.167 507.077 275.813 508.736 284.154C510.395 292.495 514.491 300.157 520.504 306.171C526.518 312.185 534.18 316.28 542.521 317.939C550.862 319.598 559.508 318.747 567.365 315.492C575.223 312.238 581.938 306.726 586.663 299.655C591.388 292.584 593.91 284.27 593.91 275.765C593.897 264.365 589.363 253.435 581.301 245.374C573.24 237.313 562.31 232.778 550.91 232.765V232.765Z" fill="#CCCCCC"/>
<path d="M430.91 183.683C422.01 183.683 413.309 181.043 405.909 176.099C398.509 171.154 392.741 164.126 389.335 155.903C385.929 147.681 385.038 138.633 386.775 129.903C388.511 121.174 392.797 113.156 399.09 106.863C405.384 100.569 413.402 96.2835 422.131 94.5472C430.86 92.8109 439.908 93.702 448.131 97.108C456.353 100.514 463.381 106.282 468.326 113.682C473.271 121.082 475.91 129.782 475.91 138.683C475.896 150.613 471.151 162.051 462.715 170.487C454.279 178.924 442.841 183.669 430.91 183.683V183.683ZM430.91 95.6825C422.405 95.6825 414.092 98.2044 407.02 102.929C399.949 107.654 394.438 114.37 391.183 122.227C387.929 130.084 387.077 138.73 388.736 147.071C390.395 155.413 394.491 163.074 400.504 169.088C406.518 175.102 414.18 179.197 422.521 180.856C430.862 182.515 439.508 181.664 447.365 178.409C455.223 175.155 461.938 169.643 466.663 162.572C471.388 155.501 473.91 147.187 473.91 138.683C473.897 127.282 469.363 116.352 461.301 108.291C453.24 100.23 442.31 95.6954 430.91 95.6825Z" fill="#CCCCCC"/>
<path d="M148.502 488.579C147.272 487.641 146.253 486.455 145.512 485.097C144.771 483.739 144.324 482.241 144.2 480.699C144.173 480.339 144.164 479.979 144.175 479.618L97.6068 448.256C96.0827 447.219 94.9345 445.718 94.3332 443.975C93.7319 442.233 93.7098 440.342 94.2701 438.586L116.527 383.29C117.485 380.91 119.347 379.006 121.705 377.996C124.063 376.985 126.726 376.951 129.11 377.899C131.494 378.848 133.405 380.702 134.425 383.057C135.444 385.411 135.49 388.074 134.55 390.461L116.581 436.152L152.842 469.087C153.32 468.978 153.806 468.903 154.295 468.863C157.095 468.64 159.875 469.497 162.064 471.258C164.253 473.02 165.684 475.552 166.066 478.335C166.448 481.118 165.75 483.942 164.116 486.227C162.482 488.513 160.036 490.086 157.278 490.625C156.571 490.762 155.852 490.831 155.132 490.831C152.734 490.833 150.403 490.041 148.502 488.579Z" fill="#A0616A"/>
<path d="M97.6257 415.85C97.3532 415.214 97.2212 414.526 97.2387 413.834C97.2562 413.142 97.4228 412.462 97.7271 411.84L108.352 390.124C109.424 386.749 111.791 383.937 114.933 382.303C118.076 380.67 121.737 380.35 125.116 381.413C128.494 382.476 131.313 384.835 132.955 387.973C134.596 391.11 134.927 394.771 133.873 398.153L129.994 422.095C129.884 422.778 129.627 423.429 129.242 424.004C128.857 424.579 128.352 425.065 127.762 425.427C127.173 425.79 126.512 426.021 125.825 426.105C125.138 426.189 124.441 426.124 123.781 425.914L100.596 418.546C99.9357 418.337 99.3288 417.988 98.8162 417.522C98.3037 417.057 97.8976 416.487 97.6257 415.85V415.85Z" fill="#5248EA"/>
<path d="M170.908 683.95H183.168L189 636.662L170.906 636.663L170.908 683.95Z" fill="#A0616A"/>
<path d="M167.781 679.948L191.924 679.947H191.925C193.946 679.947 195.947 680.344 197.813 681.118C199.68 681.891 201.376 683.024 202.805 684.453C204.234 685.882 205.367 687.578 206.141 689.445C206.914 691.311 207.312 693.312 207.312 695.333V695.833L167.781 695.834L167.781 679.948Z" fill="#2F2E41"/>
<path d="M51.025 675.264L62.899 678.315L80.319 633.967L62.794 629.464L51.025 675.264Z" fill="#A0616A"/>
<path d="M48.9925 670.608L72.3765 676.618L72.3774 676.618C74.3344 677.121 76.1732 678.004 77.7887 679.218C79.4043 680.431 80.765 681.951 81.7931 683.691C82.8212 685.43 83.4967 687.355 83.7809 689.356C84.0651 691.356 83.9525 693.393 83.4494 695.35L83.325 695.834L45.0385 685.995L48.9925 670.608Z" fill="#2F2E41"/>
<path d="M137.015 359.541C150.579 359.541 161.576 348.545 161.576 334.98C161.576 321.416 150.579 310.419 137.015 310.419C123.45 310.419 112.454 321.416 112.454 334.98C112.454 348.545 123.45 359.541 137.015 359.541Z" fill="#A0616A"/>
<path d="M124.592 437.141C118.749 431.126 113.787 424.314 109.856 416.907C107.766 412.845 106.548 408.391 106.283 403.831C106.018 399.271 106.71 394.706 108.316 390.43C109.956 386.059 112.493 382.079 115.763 378.747C119.034 375.415 122.966 372.805 127.307 371.085C134.919 367.996 143.411 367.868 151.113 370.727C158.814 373.586 165.166 379.224 168.919 386.532C175.065 398.559 177.473 410.318 176.078 421.484C173.41 442.829 171.848 453.863 171.435 454.275L171.298 454.412L125.609 456.443L124.592 437.141Z" fill="#4E45DC"/>
<path d="M127.306 450.535L168.193 448.5C169.225 448.449 170.238 448.799 171.018 449.478C171.797 450.156 172.284 451.11 172.376 452.14L191.185 662.972C191.235 663.532 191.166 664.096 190.983 664.628C190.8 665.16 190.507 665.647 190.123 666.058C189.739 666.469 189.273 666.794 188.754 667.013C188.236 667.231 187.678 667.338 187.115 667.326L171.142 666.986C170.263 666.968 169.415 666.66 168.729 666.112C168.043 665.563 167.556 664.804 167.344 663.951L136.828 540.988C136.629 540.184 136.184 539.461 135.556 538.921C134.928 538.38 134.147 538.047 133.322 537.97C132.497 537.892 131.668 538.072 130.949 538.486C130.231 538.899 129.659 539.526 129.313 540.279L71.4828 665.878C71.09 666.731 70.4096 667.419 69.5607 667.821C68.7118 668.222 67.7486 668.313 66.8398 668.076L50.7641 663.882C49.7691 663.624 48.9119 662.992 48.3709 662.118C47.8299 661.244 47.6466 660.195 47.8592 659.189C53.1485 634.221 84.8309 491.233 124.721 451.656C125.415 450.976 126.336 450.578 127.306 450.535V450.535Z" fill="#2F2E41"/>
<path d="M204.733 474.207C203.255 473.751 201.889 472.989 200.725 471.971C199.56 470.952 198.624 469.699 197.975 468.294C197.826 467.967 197.693 467.632 197.579 467.29L143.048 453.927C141.259 453.48 139.663 452.467 138.498 451.039C137.332 449.611 136.659 447.844 136.579 446.002L138.383 386.424C138.461 383.86 139.551 381.431 141.416 379.668C143.281 377.906 145.768 376.955 148.332 377.022C150.897 377.089 153.33 378.17 155.1 380.028C156.87 381.885 157.831 384.368 157.774 386.933L156.678 436.017L202.079 454.414C202.49 454.148 202.92 453.91 203.364 453.702H203.364C204.986 452.95 206.766 452.604 208.551 452.695C210.335 452.785 212.071 453.308 213.609 454.219C215.146 455.131 216.439 456.402 217.375 457.925C218.311 459.447 218.862 461.175 218.981 462.958C219.1 464.741 218.783 466.526 218.058 468.159C217.333 469.793 216.221 471.225 214.818 472.333C213.415 473.44 211.764 474.189 210.007 474.516C208.25 474.843 206.44 474.737 204.733 474.207V474.207Z" fill="#A0616A"/>
<path d="M132.567 416.111C132.096 415.603 131.741 415 131.525 414.343C131.308 413.685 131.237 412.989 131.314 412.301L134.017 388.277C133.892 384.738 135.175 381.293 137.585 378.698C139.995 376.104 143.336 374.571 146.875 374.435C150.414 374.3 153.862 375.574 156.463 377.977C159.064 380.38 160.607 383.716 160.752 387.254L165.151 411.106C165.276 411.787 165.253 412.487 165.084 413.158C164.915 413.829 164.603 414.456 164.169 414.996C163.736 415.535 163.191 415.975 162.572 416.286C161.954 416.596 161.275 416.769 160.584 416.793L136.271 417.652C135.579 417.677 134.89 417.552 134.251 417.286C133.612 417.02 133.037 416.619 132.567 416.111V416.111Z" fill="#5248EA"/>
<path d="M101.821 367.407L104.387 359.113L106.142 368.421L120.555 368.039L120.489 358.862L125.968 367.919L139.028 365.032C136.238 361.314 133.415 357.538 131.63 353.156C129.846 348.773 129.196 343.634 130.864 339.197C134.986 328.229 150.615 331.298 159.163 331.205C161.657 331.178 164.473 330.999 166.106 328.96C167.336 327.424 167.537 325.228 167.475 323.198C167.154 312.743 160.877 302.769 152.004 298.613C147.66 296.612 142.818 295.956 138.098 296.729C135.637 297.118 133.247 297.871 131.007 298.963C129.01 299.938 126.912 302.262 124.762 302.199C122.955 302.146 120.562 300.264 118.596 299.942C116.227 299.576 113.81 299.661 111.472 300.191C106.775 301.238 102.54 303.772 99.3962 307.417C92.7158 315.179 90.7309 326.618 91.8952 337.148C93.0596 347.678 96.9989 357.582 100.894 367.314" fill="#2F2E41"/>
<path d="M803 697.682H1C0.734784 697.682 0.480429 697.577 0.292892 697.39C0.105356 697.202 0 696.948 0 696.682C0 696.417 0.105356 696.163 0.292892 695.975C0.480429 695.788 0.734784 695.682 1 695.682H803C803.265 695.682 803.52 695.788 803.707 695.975C803.895 696.163 804 696.417 804 696.682C804 696.948 803.895 697.202 803.707 697.39C803.52 697.577 803.265 697.682 803 697.682Z" fill="#E6E6E6"/>
<path d="M789.47 685.289C792.522 682.814 794.747 679.466 795.846 675.693C796.659 671.874 795.032 667.391 791.396 665.914C787.312 664.336 782.945 667.175 779.641 670.031C776.337 672.887 772.535 676.158 768.202 675.543C770.422 673.52 772.079 670.956 773.013 668.102C773.947 665.248 774.126 662.2 773.531 659.256C773.352 658.031 772.835 656.881 772.037 655.935C769.779 653.511 765.662 654.557 762.939 656.467C754.305 662.543 751.898 674.265 751.865 684.824C750.985 681.006 751.715 677.038 751.699 673.202C751.682 669.367 750.603 664.901 747.316 662.875C745.277 661.78 742.988 661.236 740.675 661.298C736.79 661.165 732.473 661.547 729.816 664.386C726.496 667.906 727.376 673.833 730.248 677.668C733.12 681.504 737.47 683.977 741.471 686.667C744.694 688.578 747.442 691.195 749.507 694.321C749.752 694.753 749.952 695.21 750.105 695.682H774.428C779.889 692.914 784.949 689.418 789.47 685.289Z" fill="#F2F2F2"/>
<path d="M536.405 302.202C535.953 302.2 535.509 302.085 535.112 301.868C534.716 301.651 534.38 301.338 534.134 300.958C533.889 300.579 533.742 300.144 533.707 299.693C533.673 299.242 533.751 298.79 533.935 298.377L537.064 291.396C532.752 287.566 530.006 282.28 529.352 276.55C528.698 270.82 530.182 265.051 533.52 260.348C536.857 255.645 541.813 252.34 547.438 251.067C553.062 249.793 558.959 250.64 563.997 253.446C569.035 256.252 572.86 260.819 574.738 266.272C576.617 271.724 576.416 277.678 574.175 282.991C571.934 288.305 567.81 292.604 562.595 295.065C557.379 297.525 551.439 297.974 545.913 296.324L537.928 301.73C537.479 302.037 536.949 302.201 536.405 302.202V302.202ZM552.551 253.935C548.391 253.933 544.334 255.224 540.941 257.631C537.548 260.038 534.988 263.441 533.616 267.368C532.244 271.295 532.127 275.551 533.282 279.547C534.438 283.544 536.807 287.081 540.063 289.671L541.049 290.457L537.682 297.969L545.408 292.738L546.171 292.995C548.927 293.92 551.851 294.236 554.741 293.919C557.631 293.602 560.417 292.661 562.907 291.161C565.397 289.66 567.531 287.636 569.161 285.229C570.791 282.821 571.878 280.088 572.346 277.219C572.815 274.35 572.654 271.413 571.875 268.613C571.096 265.812 569.717 263.214 567.834 260.999C565.951 258.784 563.609 257.005 560.97 255.785C558.331 254.566 555.458 253.934 552.551 253.935V253.935Z" fill="#3F3D56"/>
<path d="M552.551 276.161C554.347 276.161 555.804 274.704 555.804 272.908C555.804 271.112 554.347 269.656 552.551 269.656C550.755 269.656 549.299 271.112 549.299 272.908C549.299 274.704 550.755 276.161 552.551 276.161Z" fill="#3F3D56"/>
<path d="M543.336 276.161C545.132 276.161 546.588 274.704 546.588 272.908C546.588 271.112 545.132 269.656 543.336 269.656C541.539 269.656 540.083 271.112 540.083 272.908C540.083 274.704 541.539 276.161 543.336 276.161Z" fill="#3F3D56"/>
<path d="M561.767 276.161C563.563 276.161 565.019 274.704 565.019 272.908C565.019 271.112 563.563 269.656 561.767 269.656C559.97 269.656 558.514 271.112 558.514 272.908C558.514 274.704 559.97 276.161 561.767 276.161Z" fill="#3F3D56"/>
</g>
<defs>
<clipPath id="clip0">
<rect width="804" height="697.683" fill="white"/>
</clipPath>
</defs>
</svg>
